<svg width="48" height="48" viewBox="0 0 48 48" fill="none" xmlns="http://www.w3.org/2000/svg">
    <path stroke-linejoin="round" stroke-width="4" stroke="#333"
        d="M24 44a19.937 19.937 0 0 0 14.142-5.858A19.937 19.937 0 0 0 44 24a19.938 19.938 0 0 0-5.858-14.142A19.937 19.937 0 0 0 24 4 19.938 19.938 0 0 0 9.858 9.858 19.938 19.938 0 0 0 4 24a19.937 19.937 0 0 0 5.858 14.142A19.938 19.938 0 0 0 24 44Z" />
    <path stroke-linejoin="round" stroke-linecap="round" stroke-width="4" stroke="#333" d="m16 24 6 6 12-12" />
</svg>