<svg width="48" height="48" viewBox="0 0 48 48" fill="none" xmlns="http://www.w3.org/2000/svg"><path stroke-linejoin="round" stroke-linecap="round" stroke-width="4" stroke="#333" d="M5 24h38"/><path stroke-linejoin="round" stroke-width="4" stroke="#333" d="M28 4h-8a2 2 0 0 0-2 2v8a2 2 0 0 0 2 2h8a2 2 0 0 0 2-2V6a2 2 0 0 0-2-2ZM16 32H8a2 2 0 0 0-2 2v8a2 2 0 0 0 2 2h8a2 2 0 0 0 2-2v-8a2 2 0 0 0-2-2ZM40 32h-8a2 2 0 0 0-2 2v8a2 2 0 0 0 2 2h8a2 2 0 0 0 2-2v-8a2 2 0 0 0-2-2Z"/><path stroke-linejoin="round" stroke-linecap="round" stroke-width="4" stroke="#333" d="M24 24v-8M36 32v-8M12 32v-8"/></svg>