<svg xmlns="http://www.w3.org/2000/svg" fill="none" viewBox="0 0 48 48"><path stroke-linejoin="round" stroke-width="4" stroke="#333" d="M38 8H10a2 2 0 0 0-2 2v28a2 2 0 0 0 2 2h28a2 2 0 0 0 2-2V10a2 2 0 0 0-2-2Z"/><path stroke-linejoin="round" stroke-width="4" stroke="#333" d="M30 18H18v12h12V18Z"/><path d="M14.91 2v6-6Z" clip-rule="evenodd"/><path stroke-linejoin="round" stroke-linecap="round" stroke-width="4" stroke="#333" d="M14.91 2v6"/><path d="M14.91 40v6-6Z" clip-rule="evenodd"/><path stroke-linejoin="round" stroke-linecap="round" stroke-width="4" stroke="#333" d="M14.91 40v6"/><path d="M24 2v6-6Z" clip-rule="evenodd"/><path stroke-linejoin="round" stroke-linecap="round" stroke-width="4" stroke="#333" d="M24 2v6"/><path d="M24 40v6-6Z" clip-rule="evenodd"/><path stroke-linejoin="round" stroke-linecap="round" stroke-width="4" stroke="#333" d="M24 40v6"/><path d="M33.09 2v6-6Z" clip-rule="evenodd"/><path stroke-linejoin="round" stroke-linecap="round" stroke-width="4" stroke="#333" d="M33.09 2v6"/><path d="M33.09 40v6-6Z" clip-rule="evenodd"/><path stroke-linejoin="round" stroke-linecap="round" stroke-width="4" stroke="#333" d="M33.09 40v6"/><path d="M2 14.91h6-6Z" clip-rule="evenodd"/><path stroke-linejoin="round" stroke-linecap="round" stroke-width="4" stroke="#333" d="M2 14.91h6"/><path d="M40 14.91h6-6Z" clip-rule="evenodd"/><path stroke-linejoin="round" stroke-linecap="round" stroke-width="4" stroke="#333" d="M40 14.91h6"/><path d="M2 24h6-6Z" clip-rule="evenodd"/><path stroke-linejoin="round" stroke-linecap="round" stroke-width="4" stroke="#333" d="M2 24h6"/><path d="M40 24h6-6Z" clip-rule="evenodd"/><path stroke-linejoin="round" stroke-linecap="round" stroke-width="4" stroke="#333" d="M40 24h6"/><path d="M2 33.09h6-6Z" clip-rule="evenodd"/><path stroke-linejoin="round" stroke-linecap="round" stroke-width="4" stroke="#333" d="M2 33.09h6"/><path d="M40 33.09h6-6Z" clip-rule="evenodd"/><path stroke-linejoin="round" stroke-linecap="round" stroke-width="4" stroke="#333" d="M40 33.09h6"/></svg>