<svg xmlns="http://www.w3.org/2000/svg" fill="none" viewBox="0 0 48 48"><path stroke-linejoin="round" stroke-linecap="round" stroke-width="4" stroke="#333" d="M10 38v6h28v-6M38 20v-6L30 4H10v16"/><path stroke-linejoin="round" stroke-linecap="round" stroke-width="4" stroke="#333" d="M28 4v10h10"/><rect stroke-linejoin="round" stroke-width="4" stroke="#333" rx="2" height="18" width="40" y="20" x="4"/><path stroke-linecap="round" stroke-width="4" stroke="#333" d="M21 25v8M10 25v8"/><path stroke-linejoin="round" stroke-linecap="round" stroke-width="4" stroke="#333" d="M32 33v-8h5M32 30h5M10 25h3.5a2.5 2.5 0 0 1 2.5 2.5v0a2.5 2.5 0 0 1-2.5 2.5H10M21 25h2a4 4 0 0 1 4 4v0a4 4 0 0 1-4 4h-2"/><path stroke-linecap="round" stroke-width="4" stroke="#333" d="M16 12h4"/></svg>