<svg width="48" height="48" viewBox="0 0 48 48" fill="none" xmlns="http://www.w3.org/2000/svg"><path stroke-linejoin="round" stroke-linecap="round" stroke-width="4" stroke="#333" d="M10 44h28a2 2 0 0 0 2-2V14H30V4H10a2 2 0 0 0-2 2v36a2 2 0 0 0 2 2ZM30 4l10 10"/><path stroke-linejoin="round" stroke-linecap="round" stroke-width="4" stroke="#333" d="M20.85 21C18.724 21 17 23.009 17 25.486c0 4.487 4.55 8.565 7 9.514 2.45-.949 7-5.027 7-9.514C31 23.01 29.276 21 27.15 21c-1.302 0-2.453.753-3.15 1.906C23.303 21.753 22.152 21 20.85 21Z"/></svg>