<svg xmlns="http://www.w3.org/2000/svg" fill="none" viewBox="0 0 48 48"><path stroke-linejoin="round" stroke-linecap="round" stroke-width="4" stroke="#333" d="M10 38v6h28v-6M38 20v-6L30 4H10v16"/><path stroke-linejoin="round" stroke-linecap="round" stroke-width="4" stroke="#333" d="M28 4v10h10"/><path stroke-linecap="round" stroke-width="4" stroke="#333" d="M16 12h4"/><rect stroke-linejoin="round" stroke-width="4" stroke="#333" rx="2" height="18" width="40" y="20" x="4"/><path stroke-linecap="round" stroke-width="4" stroke="#333" d="M10 25v8"/><path stroke-linejoin="round" stroke-linecap="round" stroke-width="4" stroke="#333" d="M10 25h2a4 4 0 0 1 4 4v0a4 4 0 0 1-4 4h-2"/><ellipse stroke-linejoin="round" stroke-linecap="round" stroke-width="4" stroke="#333" ry="4" rx="3" cy="29" cx="24"/><path stroke-linejoin="round" stroke-linecap="round" stroke-width="4" stroke="#333" d="M38 25h-2a4 4 0 0 0-4 4v0a4 4 0 0 0 4 4h2"/></svg>