<svg width="48" height="48" viewBox="0 0 48 48" fill="none" xmlns="http://www.w3.org/2000/svg"><path stroke-linejoin="round" stroke-width="4" stroke="#333" d="M18 4H6a2 2 0 0 0-2 2v12a2 2 0 0 0 2 2h12a2 2 0 0 0 2-2V6a2 2 0 0 0-2-2ZM18 28H6a2 2 0 0 0-2 2v12a2 2 0 0 0 2 2h12a2 2 0 0 0 2-2V30a2 2 0 0 0-2-2ZM42 4H30a2 2 0 0 0-2 2v12a2 2 0 0 0 2 2h12a2 2 0 0 0 2-2V6a2 2 0 0 0-2-2Z"/><path stroke-linejoin="round" stroke-linecap="round" stroke-width="4" stroke="#333" d="M28 28h16M36 36h8M28 44h16"/></svg>