<svg width="48" height="48" viewBox="0 0 48 48" fill="none" xmlns="http://www.w3.org/2000/svg"><path stroke-linejoin="round" stroke-width="4" stroke="#333" d="M33.958 44s.024-3.47 0-4.24a18.993 18.993 0 0 0 4.477-3.325A18.94 18.94 0 0 0 44 23c0-10.493-8.507-19-19-19S6 12.507 6 23a18.94 18.94 0 0 0 5.565 13.435 19.088 19.088 0 0 0 2.879 2.365c.515.345 1.01.666 1.56.96V44h17.954Z" clip-rule="evenodd"/><path stroke-linejoin="round" stroke-width="4" stroke="#333" d="M18 27a4 4 0 0 0 4-4l-4-4a4 4 0 0 0 0 8ZM32 27a4 4 0 0 1-4-4l4-4a4 4 0 0 1 0 8Z"/><path stroke-linejoin="round" stroke-linecap="round" stroke-width="4" stroke="#333" d="m22 34 2.938-3L28 33.897"/></svg>