<svg xmlns="http://www.w3.org/2000/svg" fill="none" viewBox="0 0 48 48"><path stroke-linejoin="round" stroke-linecap="round" stroke-width="4" stroke="#333" d="M17.982 11.969 31.785 4l4.612 7.989-18.415-.02Z" clip-rule="evenodd"/><path stroke-linejoin="round" stroke-width="4" stroke="#333" d="M4 14a2 2 0 0 1 2-2h36a2 2 0 0 1 2 2v28a2 2 0 0 1-2 2H6a2 2 0 0 1-2-2V14Z"/><path stroke-linejoin="round" stroke-width="4" stroke="#333" d="M35.25 33H44V23h-8.75c-2.9 0-5.25 2.239-5.25 5s2.35 5 5.25 5Z"/><path stroke-linecap="round" stroke-width="4" stroke="#333" d="M44 16.5v24"/></svg>