<svg xmlns="http://www.w3.org/2000/svg" fill="none" viewBox="0 0 48 48"><path stroke-linejoin="round" stroke-linecap="round" stroke-width="4" stroke="#333" d="M24 29a5 5 0 1 0 0-10 5 5 0 0 0 0 10Z"/><path stroke-linejoin="round" stroke-linecap="round" stroke-width="4" stroke="#333" d="M23.5 44C16.596 44 11 38.404 11 31.5S16.596 19 23.5 19"/><path stroke-linejoin="round" stroke-linecap="round" stroke-width="4" stroke="#333" d="M44 23.5C44 30.404 38.404 36 31.5 36S19 30.404 19 23.5"/><path stroke-linejoin="round" stroke-linecap="round" stroke-width="4" stroke="#333" d="M23.5 29C30.404 29 36 23.404 36 16.5S30.404 4 23.5 4"/><path stroke-linejoin="round" stroke-linecap="round" stroke-width="4" stroke="#333" d="M29 23.5C29 16.596 23.404 11 16.5 11S4 16.596 4 23.5"/></svg>